<svg width="15" height="13" viewBox="0 0 15 13" fill="none" xmlns="http://www.w3.org/2000/svg">
<path d="M12.5 6V3" stroke="black" stroke-linecap="round" stroke-linejoin="round"/>
<path d="M14 4.5H11" stroke="black" stroke-linecap="round" stroke-linejoin="round"/>
<path d="M9.5 0.5V2.5" stroke="black" stroke-linecap="round" stroke-linejoin="round"/>
<path d="M10.5 1.5H8.5" stroke="black" stroke-linecap="round" stroke-linejoin="round"/>
<path d="M12.2894 8.08125C11.3078 8.35653 10.2705 8.36555 9.28421 8.10739C8.2979 7.84923 7.39808 7.33319 6.67716 6.61227C5.95624 5.89135 5.44021 4.99153 5.18204 4.00522C4.92388 3.01892 4.93291 1.98167 5.20818 1C4.24035 1.26938 3.35998 1.78764 2.65477 2.50315C1.94956 3.21865 1.44412 4.10644 1.1888 5.07808C0.933476 6.04972 0.937179 7.07129 1.19954 8.04106C1.4619 9.01082 1.97376 9.89492 2.68414 10.6053C3.39451 11.3157 4.27861 11.8275 5.24838 12.0899C6.21814 12.3523 7.23971 12.356 8.21135 12.1006C9.18299 11.8453 10.0708 11.3399 10.7863 10.6347C11.5018 9.92945 12.02 9.04909 12.2894 8.08125Z" stroke="black" stroke-linecap="round" stroke-linejoin="round"/>
</svg>
